<mxfile host="app.diagrams.net" agent="Mozilla/5.0 (Windows NT 10.0; Win64; x64) AppleWebKit/537.36 (KHTML, like Gecko) Chrome/136.0.0.0 Safari/537.36" version="27.0.3">
  <diagram name="Page-1" id="ECaA_-LDTP4TBSBRsaxr">
    <mxGraphModel dx="1226" dy="661" grid="1" gridSize="10" guides="1" tooltips="1" connect="1" arrows="1" fold="1" page="0" pageScale="2" pageWidth="850" pageHeight="1100" math="0" shadow="0">
      <root>
        <mxCell id="0" />
        <mxCell id="1" parent="0" />
        <mxCell id="v4bEyIWDKxA1EAHSsEIr-55" value="" style="rounded=1;whiteSpace=wrap;html=1;direction=south;fillColor=#fff2cc;strokeColor=#d6b656;" vertex="1" parent="1">
          <mxGeometry x="494" y="300" width="116" height="600" as="geometry" />
        </mxCell>
        <mxCell id="Q0XkWP68WrlB3HJ1z4Vm-91" value="Ideal Flow" style="rounded=1;whiteSpace=wrap;html=1;direction=south;fillColor=#fff2cc;strokeColor=#d6b656;" parent="1" vertex="1">
          <mxGeometry x="16.68" y="300" width="97.32" height="650" as="geometry" />
        </mxCell>
        <mxCell id="Q0XkWP68WrlB3HJ1z4Vm-25" style="edgeStyle=orthogonalEdgeStyle;rounded=0;orthogonalLoop=1;jettySize=auto;html=1;exitX=0.5;exitY=1;exitDx=0;exitDy=0;entryX=0.5;entryY=0;entryDx=0;entryDy=0;" parent="1" source="Q0XkWP68WrlB3HJ1z4Vm-3" target="Q0XkWP68WrlB3HJ1z4Vm-5" edge="1">
          <mxGeometry relative="1" as="geometry" />
        </mxCell>
        <mxCell id="Q0XkWP68WrlB3HJ1z4Vm-3" value="Production Order" style="rounded=0;whiteSpace=wrap;html=1;" parent="1" vertex="1">
          <mxGeometry x="349" y="10" width="120" height="20" as="geometry" />
        </mxCell>
        <mxCell id="Q0XkWP68WrlB3HJ1z4Vm-5" value="Stage Code" style="rounded=1;whiteSpace=wrap;html=1;" parent="1" vertex="1">
          <mxGeometry x="349" y="50" width="120" height="20" as="geometry" />
        </mxCell>
        <mxCell id="Q0XkWP68WrlB3HJ1z4Vm-6" value="Pre-Trim" style="rounded=1;whiteSpace=wrap;html=1;" parent="1" vertex="1">
          <mxGeometry x="47" y="78" width="70" height="20" as="geometry" />
        </mxCell>
        <mxCell id="Q0XkWP68WrlB3HJ1z4Vm-8" value="Trim 1" style="rounded=1;whiteSpace=wrap;html=1;" parent="1" vertex="1">
          <mxGeometry x="141" y="78" width="70" height="20" as="geometry" />
        </mxCell>
        <mxCell id="Q0XkWP68WrlB3HJ1z4Vm-9" value="Trim 2" style="rounded=1;whiteSpace=wrap;html=1;" parent="1" vertex="1">
          <mxGeometry x="236" y="78" width="70" height="20" as="geometry" />
        </mxCell>
        <mxCell id="Q0XkWP68WrlB3HJ1z4Vm-10" value="Door Line" style="rounded=1;whiteSpace=wrap;html=1;" parent="1" vertex="1">
          <mxGeometry x="330" y="78" width="70" height="20" as="geometry" />
        </mxCell>
        <mxCell id="Q0XkWP68WrlB3HJ1z4Vm-11" value="Chassis 1" style="rounded=1;whiteSpace=wrap;html=1;" parent="1" vertex="1">
          <mxGeometry x="424" y="78" width="70" height="20" as="geometry" />
        </mxCell>
        <mxCell id="Q0XkWP68WrlB3HJ1z4Vm-12" value="Chassis 2" style="rounded=1;whiteSpace=wrap;html=1;" parent="1" vertex="1">
          <mxGeometry x="518" y="78" width="70" height="20" as="geometry" />
        </mxCell>
        <mxCell id="Q0XkWP68WrlB3HJ1z4Vm-13" value="FEM" style="rounded=1;whiteSpace=wrap;html=1;" parent="1" vertex="1">
          <mxGeometry x="613" y="78" width="70" height="20" as="geometry" />
        </mxCell>
        <mxCell id="Q0XkWP68WrlB3HJ1z4Vm-14" value="Final" style="rounded=1;whiteSpace=wrap;html=1;" parent="1" vertex="1">
          <mxGeometry x="707" y="78" width="70" height="20" as="geometry" />
        </mxCell>
        <mxCell id="Q0XkWP68WrlB3HJ1z4Vm-16" value="" style="strokeWidth=2;html=1;shape=mxgraph.flowchart.annotation_2;align=left;labelPosition=right;pointerEvents=1;rotation=-90;" parent="1" vertex="1">
          <mxGeometry x="387" y="-260" width="50" height="740" as="geometry" />
        </mxCell>
        <mxCell id="Q0XkWP68WrlB3HJ1z4Vm-48" style="edgeStyle=orthogonalEdgeStyle;rounded=0;orthogonalLoop=1;jettySize=auto;html=1;exitX=0;exitY=0.5;exitDx=0;exitDy=0;entryX=0.5;entryY=0;entryDx=0;entryDy=0;" parent="1" source="Q0XkWP68WrlB3HJ1z4Vm-18" target="Q0XkWP68WrlB3HJ1z4Vm-19" edge="1">
          <mxGeometry relative="1" as="geometry" />
        </mxCell>
        <mxCell id="Q0XkWP68WrlB3HJ1z4Vm-49" style="edgeStyle=orthogonalEdgeStyle;rounded=0;orthogonalLoop=1;jettySize=auto;html=1;exitX=1;exitY=0.5;exitDx=0;exitDy=0;" parent="1" source="Q0XkWP68WrlB3HJ1z4Vm-18" target="Q0XkWP68WrlB3HJ1z4Vm-20" edge="1">
          <mxGeometry relative="1" as="geometry" />
        </mxCell>
        <mxCell id="Q0XkWP68WrlB3HJ1z4Vm-18" value="Production Rate" style="rounded=0;whiteSpace=wrap;html=1;" parent="1" vertex="1">
          <mxGeometry x="352" y="128" width="120" height="30" as="geometry" />
        </mxCell>
        <mxCell id="Q0XkWP68WrlB3HJ1z4Vm-23" style="edgeStyle=orthogonalEdgeStyle;rounded=0;orthogonalLoop=1;jettySize=auto;html=1;exitX=0.5;exitY=1;exitDx=0;exitDy=0;entryX=0.5;entryY=0;entryDx=0;entryDy=0;" parent="1" source="Q0XkWP68WrlB3HJ1z4Vm-19" target="Q0XkWP68WrlB3HJ1z4Vm-21" edge="1">
          <mxGeometry relative="1" as="geometry" />
        </mxCell>
        <mxCell id="Q0XkWP68WrlB3HJ1z4Vm-19" value="4 JPH" style="rounded=1;whiteSpace=wrap;html=1;" parent="1" vertex="1">
          <mxGeometry x="289" y="168" width="60" height="20" as="geometry" />
        </mxCell>
        <mxCell id="Q0XkWP68WrlB3HJ1z4Vm-24" style="edgeStyle=orthogonalEdgeStyle;rounded=0;orthogonalLoop=1;jettySize=auto;html=1;exitX=0.5;exitY=1;exitDx=0;exitDy=0;entryX=0.5;entryY=0;entryDx=0;entryDy=0;" parent="1" source="Q0XkWP68WrlB3HJ1z4Vm-20" target="Q0XkWP68WrlB3HJ1z4Vm-22" edge="1">
          <mxGeometry relative="1" as="geometry" />
        </mxCell>
        <mxCell id="Q0XkWP68WrlB3HJ1z4Vm-20" value="38 JPH" style="rounded=1;whiteSpace=wrap;html=1;" parent="1" vertex="1">
          <mxGeometry x="476" y="168" width="60" height="20" as="geometry" />
        </mxCell>
        <mxCell id="Q0XkWP68WrlB3HJ1z4Vm-50" style="edgeStyle=orthogonalEdgeStyle;rounded=0;orthogonalLoop=1;jettySize=auto;html=1;exitX=0.5;exitY=1;exitDx=0;exitDy=0;entryX=0.5;entryY=0;entryDx=0;entryDy=0;" parent="1" source="Q0XkWP68WrlB3HJ1z4Vm-21" target="Q0XkWP68WrlB3HJ1z4Vm-28" edge="1">
          <mxGeometry relative="1" as="geometry" />
        </mxCell>
        <mxCell id="Q0XkWP68WrlB3HJ1z4Vm-21" value="Station Code" style="rounded=1;whiteSpace=wrap;html=1;" parent="1" vertex="1">
          <mxGeometry x="281.5" y="202" width="75" height="20" as="geometry" />
        </mxCell>
        <mxCell id="Q0XkWP68WrlB3HJ1z4Vm-51" style="edgeStyle=orthogonalEdgeStyle;rounded=0;orthogonalLoop=1;jettySize=auto;html=1;exitX=0.5;exitY=1;exitDx=0;exitDy=0;entryX=0.5;entryY=0;entryDx=0;entryDy=0;" parent="1" source="Q0XkWP68WrlB3HJ1z4Vm-22" target="Q0XkWP68WrlB3HJ1z4Vm-29" edge="1">
          <mxGeometry relative="1" as="geometry" />
        </mxCell>
        <mxCell id="Q0XkWP68WrlB3HJ1z4Vm-22" value="Station Code" style="rounded=1;whiteSpace=wrap;html=1;" parent="1" vertex="1">
          <mxGeometry x="471" y="202" width="75" height="20" as="geometry" />
        </mxCell>
        <mxCell id="Q0XkWP68WrlB3HJ1z4Vm-27" value="Delivery Points @ Production Line" style="text;html=1;align=center;verticalAlign=middle;whiteSpace=wrap;rounded=0;" parent="1" vertex="1">
          <mxGeometry x="7" y="202" width="190" height="30" as="geometry" />
        </mxCell>
        <mxCell id="Q0XkWP68WrlB3HJ1z4Vm-33" style="edgeStyle=orthogonalEdgeStyle;rounded=0;orthogonalLoop=1;jettySize=auto;html=1;exitX=0;exitY=0.5;exitDx=0;exitDy=0;" parent="1" source="Q0XkWP68WrlB3HJ1z4Vm-28" target="Q0XkWP68WrlB3HJ1z4Vm-30" edge="1">
          <mxGeometry relative="1" as="geometry" />
        </mxCell>
        <mxCell id="Q0XkWP68WrlB3HJ1z4Vm-34" style="edgeStyle=orthogonalEdgeStyle;rounded=0;orthogonalLoop=1;jettySize=auto;html=1;exitX=1;exitY=0.5;exitDx=0;exitDy=0;entryX=0.5;entryY=0;entryDx=0;entryDy=0;" parent="1" source="Q0XkWP68WrlB3HJ1z4Vm-28" target="Q0XkWP68WrlB3HJ1z4Vm-31" edge="1">
          <mxGeometry relative="1" as="geometry" />
        </mxCell>
        <mxCell id="Q0XkWP68WrlB3HJ1z4Vm-28" value="Route Plan" style="rounded=1;whiteSpace=wrap;html=1;" parent="1" vertex="1">
          <mxGeometry x="281.5" y="240" width="75" height="20" as="geometry" />
        </mxCell>
        <mxCell id="Q0XkWP68WrlB3HJ1z4Vm-35" style="edgeStyle=orthogonalEdgeStyle;rounded=0;orthogonalLoop=1;jettySize=auto;html=1;exitX=0;exitY=0.5;exitDx=0;exitDy=0;entryX=0.5;entryY=0;entryDx=0;entryDy=0;" parent="1" source="Q0XkWP68WrlB3HJ1z4Vm-29" target="Q0XkWP68WrlB3HJ1z4Vm-31" edge="1">
          <mxGeometry relative="1" as="geometry">
            <mxPoint x="427" y="280" as="targetPoint" />
          </mxGeometry>
        </mxCell>
        <mxCell id="Q0XkWP68WrlB3HJ1z4Vm-36" style="edgeStyle=orthogonalEdgeStyle;rounded=0;orthogonalLoop=1;jettySize=auto;html=1;exitX=1;exitY=0.5;exitDx=0;exitDy=0;entryX=0.5;entryY=0;entryDx=0;entryDy=0;" parent="1" source="Q0XkWP68WrlB3HJ1z4Vm-29" target="Q0XkWP68WrlB3HJ1z4Vm-32" edge="1">
          <mxGeometry relative="1" as="geometry" />
        </mxCell>
        <mxCell id="Q0XkWP68WrlB3HJ1z4Vm-29" value="Route Plan" style="rounded=1;whiteSpace=wrap;html=1;" parent="1" vertex="1">
          <mxGeometry x="515.5" y="240" width="75" height="20" as="geometry" />
        </mxCell>
        <mxCell id="Q0XkWP68WrlB3HJ1z4Vm-52" style="edgeStyle=orthogonalEdgeStyle;rounded=0;orthogonalLoop=1;jettySize=auto;html=1;exitX=0;exitY=0.5;exitDx=0;exitDy=0;entryX=0.5;entryY=0;entryDx=0;entryDy=0;" parent="1" target="Q0XkWP68WrlB3HJ1z4Vm-39" edge="1">
          <mxGeometry relative="1" as="geometry">
            <mxPoint x="150" y="290" as="sourcePoint" />
          </mxGeometry>
        </mxCell>
        <mxCell id="Q0XkWP68WrlB3HJ1z4Vm-53" style="edgeStyle=orthogonalEdgeStyle;rounded=0;orthogonalLoop=1;jettySize=auto;html=1;exitX=0.25;exitY=1;exitDx=0;exitDy=0;entryX=0.5;entryY=0;entryDx=0;entryDy=0;" parent="1" target="Q0XkWP68WrlB3HJ1z4Vm-41" edge="1">
          <mxGeometry relative="1" as="geometry">
            <mxPoint x="169.5" y="300" as="sourcePoint" />
          </mxGeometry>
        </mxCell>
        <mxCell id="Q0XkWP68WrlB3HJ1z4Vm-54" style="edgeStyle=orthogonalEdgeStyle;rounded=0;orthogonalLoop=1;jettySize=auto;html=1;exitX=0.75;exitY=1;exitDx=0;exitDy=0;entryX=0.5;entryY=0;entryDx=0;entryDy=0;" parent="1" source="Q0XkWP68WrlB3HJ1z4Vm-30" target="Q0XkWP68WrlB3HJ1z4Vm-42" edge="1">
          <mxGeometry relative="1" as="geometry">
            <Array as="points">
              <mxPoint x="251" y="300" />
            </Array>
          </mxGeometry>
        </mxCell>
        <mxCell id="Q0XkWP68WrlB3HJ1z4Vm-55" style="edgeStyle=orthogonalEdgeStyle;rounded=0;orthogonalLoop=1;jettySize=auto;html=1;exitX=1;exitY=0.5;exitDx=0;exitDy=0;entryX=0.5;entryY=0;entryDx=0;entryDy=0;" parent="1" source="Q0XkWP68WrlB3HJ1z4Vm-30" target="Q0XkWP68WrlB3HJ1z4Vm-43" edge="1">
          <mxGeometry relative="1" as="geometry" />
        </mxCell>
        <mxCell id="Q0XkWP68WrlB3HJ1z4Vm-30" value="Cluster Picking" style="rounded=1;whiteSpace=wrap;html=1;flipH=0;" parent="1" vertex="1">
          <mxGeometry x="144" y="280" width="90" height="20" as="geometry" />
        </mxCell>
        <mxCell id="Q0XkWP68WrlB3HJ1z4Vm-31" value="Internal Sequence" style="rounded=1;whiteSpace=wrap;html=1;flipH=0;" parent="1" vertex="1">
          <mxGeometry x="413.25" y="280" width="105.5" height="20" as="geometry" />
        </mxCell>
        <mxCell id="Q0XkWP68WrlB3HJ1z4Vm-56" style="edgeStyle=orthogonalEdgeStyle;rounded=0;orthogonalLoop=1;jettySize=auto;html=1;exitX=0;exitY=0.5;exitDx=0;exitDy=0;entryX=0.5;entryY=0;entryDx=0;entryDy=0;" parent="1" source="Q0XkWP68WrlB3HJ1z4Vm-32" target="Q0XkWP68WrlB3HJ1z4Vm-44" edge="1">
          <mxGeometry relative="1" as="geometry" />
        </mxCell>
        <mxCell id="Q0XkWP68WrlB3HJ1z4Vm-57" style="edgeStyle=orthogonalEdgeStyle;rounded=0;orthogonalLoop=1;jettySize=auto;html=1;exitX=0;exitY=1;exitDx=0;exitDy=0;entryX=0.5;entryY=0;entryDx=0;entryDy=0;" parent="1" source="Q0XkWP68WrlB3HJ1z4Vm-32" target="Q0XkWP68WrlB3HJ1z4Vm-45" edge="1">
          <mxGeometry relative="1" as="geometry" />
        </mxCell>
        <mxCell id="Q0XkWP68WrlB3HJ1z4Vm-58" style="edgeStyle=orthogonalEdgeStyle;rounded=0;orthogonalLoop=1;jettySize=auto;html=1;exitX=1;exitY=1;exitDx=0;exitDy=0;entryX=0.5;entryY=0;entryDx=0;entryDy=0;" parent="1" source="Q0XkWP68WrlB3HJ1z4Vm-32" target="Q0XkWP68WrlB3HJ1z4Vm-46" edge="1">
          <mxGeometry relative="1" as="geometry" />
        </mxCell>
        <mxCell id="Q0XkWP68WrlB3HJ1z4Vm-59" style="edgeStyle=orthogonalEdgeStyle;rounded=0;orthogonalLoop=1;jettySize=auto;html=1;exitX=1;exitY=0.5;exitDx=0;exitDy=0;entryX=0.5;entryY=0;entryDx=0;entryDy=0;" parent="1" source="Q0XkWP68WrlB3HJ1z4Vm-32" target="Q0XkWP68WrlB3HJ1z4Vm-47" edge="1">
          <mxGeometry relative="1" as="geometry" />
        </mxCell>
        <mxCell id="Q0XkWP68WrlB3HJ1z4Vm-32" value="Station Picking" style="rounded=1;whiteSpace=wrap;html=1;flipH=0;" parent="1" vertex="1">
          <mxGeometry x="631" y="280" width="90" height="20" as="geometry" />
        </mxCell>
        <mxCell id="Q0XkWP68WrlB3HJ1z4Vm-37" value="One Cluster, Multiple Picker, Multiple Delivery Point" style="text;html=1;align=center;verticalAlign=middle;whiteSpace=wrap;rounded=0;" parent="1" vertex="1">
          <mxGeometry y="232" width="280" height="20" as="geometry" />
        </mxCell>
        <mxCell id="Q0XkWP68WrlB3HJ1z4Vm-38" value="Multiple Cluster, Multiple Picker, One Delivery Point" style="text;html=1;align=center;verticalAlign=middle;whiteSpace=wrap;rounded=0;" parent="1" vertex="1">
          <mxGeometry x="570" y="222" width="280" height="30" as="geometry" />
        </mxCell>
        <mxCell id="Q0XkWP68WrlB3HJ1z4Vm-61" style="edgeStyle=orthogonalEdgeStyle;rounded=0;orthogonalLoop=1;jettySize=auto;html=1;exitX=0.5;exitY=1;exitDx=0;exitDy=0;entryX=0.5;entryY=0;entryDx=0;entryDy=0;" parent="1" source="Q0XkWP68WrlB3HJ1z4Vm-39" target="Q0XkWP68WrlB3HJ1z4Vm-60" edge="1">
          <mxGeometry relative="1" as="geometry" />
        </mxCell>
        <mxCell id="Q0XkWP68WrlB3HJ1z4Vm-39" value="Picker 1" style="rounded=1;whiteSpace=wrap;html=1;flipH=1;" parent="1" vertex="1">
          <mxGeometry x="41" y="320" width="60" height="20" as="geometry" />
        </mxCell>
        <mxCell id="Q0XkWP68WrlB3HJ1z4Vm-101" style="edgeStyle=orthogonalEdgeStyle;rounded=0;orthogonalLoop=1;jettySize=auto;html=1;exitX=0.5;exitY=1;exitDx=0;exitDy=0;entryX=0.5;entryY=0;entryDx=0;entryDy=0;" parent="1" source="Q0XkWP68WrlB3HJ1z4Vm-41" target="Q0XkWP68WrlB3HJ1z4Vm-95" edge="1">
          <mxGeometry relative="1" as="geometry" />
        </mxCell>
        <mxCell id="Q0XkWP68WrlB3HJ1z4Vm-41" value="Picker 2" style="rounded=1;whiteSpace=wrap;html=1;flipH=1;" parent="1" vertex="1">
          <mxGeometry x="136.06" y="320" width="61" height="20" as="geometry" />
        </mxCell>
        <mxCell id="Q0XkWP68WrlB3HJ1z4Vm-105" style="edgeStyle=orthogonalEdgeStyle;rounded=0;orthogonalLoop=1;jettySize=auto;html=1;exitX=0.25;exitY=1;exitDx=0;exitDy=0;" parent="1" source="Q0XkWP68WrlB3HJ1z4Vm-42" edge="1">
          <mxGeometry relative="1" as="geometry">
            <mxPoint x="247" y="330" as="targetPoint" />
          </mxGeometry>
        </mxCell>
        <mxCell id="Q0XkWP68WrlB3HJ1z4Vm-141" style="edgeStyle=orthogonalEdgeStyle;rounded=0;orthogonalLoop=1;jettySize=auto;html=1;exitX=0.5;exitY=1;exitDx=0;exitDy=0;entryX=0.5;entryY=0;entryDx=0;entryDy=0;" parent="1" source="Q0XkWP68WrlB3HJ1z4Vm-42" target="Q0XkWP68WrlB3HJ1z4Vm-120" edge="1">
          <mxGeometry relative="1" as="geometry" />
        </mxCell>
        <mxCell id="Q0XkWP68WrlB3HJ1z4Vm-42" value="Picker 3" style="rounded=1;whiteSpace=wrap;html=1;flipH=1;" parent="1" vertex="1">
          <mxGeometry x="241.07" y="320" width="57.5" height="20" as="geometry" />
        </mxCell>
        <mxCell id="Q0XkWP68WrlB3HJ1z4Vm-43" value="Buffer Picker" style="rounded=1;whiteSpace=wrap;html=1;flipH=1;" parent="1" vertex="1">
          <mxGeometry x="342.75" y="320" width="77.5" height="20" as="geometry" />
        </mxCell>
        <mxCell id="v4bEyIWDKxA1EAHSsEIr-14" style="edgeStyle=orthogonalEdgeStyle;rounded=0;orthogonalLoop=1;jettySize=auto;html=1;exitX=0.638;exitY=0.97;exitDx=0;exitDy=0;entryX=0.5;entryY=0;entryDx=0;entryDy=0;exitPerimeter=0;" edge="1" parent="1" source="Q0XkWP68WrlB3HJ1z4Vm-44" target="v4bEyIWDKxA1EAHSsEIr-1">
          <mxGeometry relative="1" as="geometry" />
        </mxCell>
        <mxCell id="Q0XkWP68WrlB3HJ1z4Vm-44" value="Group 1" style="rounded=1;whiteSpace=wrap;html=1;flipH=1;" parent="1" vertex="1">
          <mxGeometry x="522" y="313" width="60" height="20" as="geometry" />
        </mxCell>
        <mxCell id="v4bEyIWDKxA1EAHSsEIr-69" style="edgeStyle=orthogonalEdgeStyle;rounded=0;orthogonalLoop=1;jettySize=auto;html=1;exitX=0.5;exitY=1;exitDx=0;exitDy=0;entryX=0.5;entryY=0;entryDx=0;entryDy=0;" edge="1" parent="1" source="Q0XkWP68WrlB3HJ1z4Vm-45" target="v4bEyIWDKxA1EAHSsEIr-68">
          <mxGeometry relative="1" as="geometry" />
        </mxCell>
        <mxCell id="Q0XkWP68WrlB3HJ1z4Vm-45" value="Group 2" style="rounded=1;whiteSpace=wrap;html=1;flipH=1;" parent="1" vertex="1">
          <mxGeometry x="633" y="313" width="61" height="20" as="geometry" />
        </mxCell>
        <mxCell id="Q0XkWP68WrlB3HJ1z4Vm-46" value="Group 3" style="rounded=1;whiteSpace=wrap;html=1;flipH=1;" parent="1" vertex="1">
          <mxGeometry x="718" y="313" width="57.5" height="20" as="geometry" />
        </mxCell>
        <mxCell id="Q0XkWP68WrlB3HJ1z4Vm-47" value="Buffer Group" style="rounded=1;whiteSpace=wrap;html=1;flipH=1;" parent="1" vertex="1">
          <mxGeometry x="791" y="313" width="77.5" height="20" as="geometry" />
        </mxCell>
        <mxCell id="Q0XkWP68WrlB3HJ1z4Vm-64" style="edgeStyle=orthogonalEdgeStyle;rounded=0;orthogonalLoop=1;jettySize=auto;html=1;exitX=0.5;exitY=1;exitDx=0;exitDy=0;entryX=0.5;entryY=0;entryDx=0;entryDy=0;" parent="1" source="Q0XkWP68WrlB3HJ1z4Vm-60" target="Q0XkWP68WrlB3HJ1z4Vm-62" edge="1">
          <mxGeometry relative="1" as="geometry" />
        </mxCell>
        <mxCell id="Q0XkWP68WrlB3HJ1z4Vm-93" style="edgeStyle=orthogonalEdgeStyle;rounded=0;orthogonalLoop=1;jettySize=auto;html=1;exitX=1;exitY=0.5;exitDx=0;exitDy=0;entryX=0;entryY=0.5;entryDx=0;entryDy=0;fillColor=#f8cecc;strokeColor=#b85450;" parent="1" source="Q0XkWP68WrlB3HJ1z4Vm-60" target="Q0XkWP68WrlB3HJ1z4Vm-41" edge="1">
          <mxGeometry relative="1" as="geometry">
            <Array as="points">
              <mxPoint x="118" y="390" />
              <mxPoint x="118" y="330" />
            </Array>
          </mxGeometry>
        </mxCell>
        <mxCell id="Q0XkWP68WrlB3HJ1z4Vm-60" value="Availability" style="rhombus;whiteSpace=wrap;html=1;" parent="1" vertex="1">
          <mxGeometry x="24" y="360" width="78.5" height="60" as="geometry" />
        </mxCell>
        <mxCell id="Q0XkWP68WrlB3HJ1z4Vm-65" style="edgeStyle=orthogonalEdgeStyle;rounded=0;orthogonalLoop=1;jettySize=auto;html=1;exitX=0.5;exitY=1;exitDx=0;exitDy=0;entryX=0.5;entryY=0;entryDx=0;entryDy=0;" parent="1" source="Q0XkWP68WrlB3HJ1z4Vm-62" target="Q0XkWP68WrlB3HJ1z4Vm-63" edge="1">
          <mxGeometry relative="1" as="geometry">
            <mxPoint x="64" y="508" as="sourcePoint" />
          </mxGeometry>
        </mxCell>
        <mxCell id="Q0XkWP68WrlB3HJ1z4Vm-62" value="User Accept" style="rhombus;whiteSpace=wrap;html=1;" parent="1" vertex="1">
          <mxGeometry x="24" y="436" width="80" height="70" as="geometry" />
        </mxCell>
        <mxCell id="Q0XkWP68WrlB3HJ1z4Vm-89" style="edgeStyle=orthogonalEdgeStyle;rounded=0;orthogonalLoop=1;jettySize=auto;html=1;exitX=0.5;exitY=1;exitDx=0;exitDy=0;entryX=0.5;entryY=0;entryDx=0;entryDy=0;" parent="1" source="Q0XkWP68WrlB3HJ1z4Vm-63" target="Q0XkWP68WrlB3HJ1z4Vm-88" edge="1">
          <mxGeometry relative="1" as="geometry" />
        </mxCell>
        <mxCell id="Q0XkWP68WrlB3HJ1z4Vm-63" value="Assign Task" style="rounded=1;whiteSpace=wrap;html=1;flipH=1;" parent="1" vertex="1">
          <mxGeometry x="34" y="527" width="60" height="30" as="geometry" />
        </mxCell>
        <mxCell id="Q0XkWP68WrlB3HJ1z4Vm-68" value="Yes" style="text;html=1;align=center;verticalAlign=middle;whiteSpace=wrap;rounded=0;" parent="1" vertex="1">
          <mxGeometry x="65.5" y="420" width="28.5" height="10" as="geometry" />
        </mxCell>
        <mxCell id="Q0XkWP68WrlB3HJ1z4Vm-69" value="Yes" style="text;html=1;align=center;verticalAlign=middle;whiteSpace=wrap;rounded=0;" parent="1" vertex="1">
          <mxGeometry x="65.5" y="506" width="28.5" height="10" as="geometry" />
        </mxCell>
        <mxCell id="Q0XkWP68WrlB3HJ1z4Vm-79" style="edgeStyle=orthogonalEdgeStyle;rounded=0;orthogonalLoop=1;jettySize=auto;html=1;exitX=0.5;exitY=1;exitDx=0;exitDy=0;entryX=0.5;entryY=0;entryDx=0;entryDy=0;" parent="1" source="Q0XkWP68WrlB3HJ1z4Vm-80" target="Q0XkWP68WrlB3HJ1z4Vm-82" edge="1">
          <mxGeometry relative="1" as="geometry" />
        </mxCell>
        <mxCell id="Q0XkWP68WrlB3HJ1z4Vm-80" value="Scan the Cart# to SPS Order in PDA" style="rounded=1;whiteSpace=wrap;html=1;flipH=1;align=left;" parent="1" vertex="1">
          <mxGeometry x="15.94" y="652" width="96.12" height="44" as="geometry" />
        </mxCell>
        <mxCell id="Q0XkWP68WrlB3HJ1z4Vm-81" style="edgeStyle=orthogonalEdgeStyle;rounded=0;orthogonalLoop=1;jettySize=auto;html=1;exitX=0.5;exitY=1;exitDx=0;exitDy=0;entryX=0.5;entryY=0;entryDx=0;entryDy=0;" parent="1" source="Q0XkWP68WrlB3HJ1z4Vm-82" target="Q0XkWP68WrlB3HJ1z4Vm-84" edge="1">
          <mxGeometry relative="1" as="geometry" />
        </mxCell>
        <mxCell id="Q0XkWP68WrlB3HJ1z4Vm-82" value="Follow Picking Guideline" style="rounded=1;whiteSpace=wrap;html=1;flipH=1;align=left;" parent="1" vertex="1">
          <mxGeometry x="15.93" y="718" width="90.75" height="30" as="geometry" />
        </mxCell>
        <mxCell id="Q0XkWP68WrlB3HJ1z4Vm-83" style="edgeStyle=orthogonalEdgeStyle;rounded=0;orthogonalLoop=1;jettySize=auto;html=1;exitX=0.5;exitY=1;exitDx=0;exitDy=0;entryX=0.5;entryY=0;entryDx=0;entryDy=0;" parent="1" source="Q0XkWP68WrlB3HJ1z4Vm-84" target="Q0XkWP68WrlB3HJ1z4Vm-86" edge="1">
          <mxGeometry relative="1" as="geometry" />
        </mxCell>
        <mxCell id="Q0XkWP68WrlB3HJ1z4Vm-84" value="Confirm the Task in PDA" style="rounded=1;whiteSpace=wrap;html=1;flipH=1;align=left;" parent="1" vertex="1">
          <mxGeometry x="16.68" y="778" width="90.75" height="30" as="geometry" />
        </mxCell>
        <mxCell id="Q0XkWP68WrlB3HJ1z4Vm-85" style="edgeStyle=orthogonalEdgeStyle;rounded=0;orthogonalLoop=1;jettySize=auto;html=1;exitX=0.5;exitY=1;exitDx=0;exitDy=0;entryX=0.5;entryY=0;entryDx=0;entryDy=0;" parent="1" source="Q0XkWP68WrlB3HJ1z4Vm-86" target="Q0XkWP68WrlB3HJ1z4Vm-87" edge="1">
          <mxGeometry relative="1" as="geometry" />
        </mxCell>
        <mxCell id="Q0XkWP68WrlB3HJ1z4Vm-86" value="Move the Cart to AMR Pick-up Point" style="rounded=1;whiteSpace=wrap;html=1;flipH=1;align=left;" parent="1" vertex="1">
          <mxGeometry x="16.689999999999998" y="827" width="90.75" height="50" as="geometry" />
        </mxCell>
        <mxCell id="v4bEyIWDKxA1EAHSsEIr-54" style="edgeStyle=orthogonalEdgeStyle;rounded=0;orthogonalLoop=1;jettySize=auto;html=1;exitX=0;exitY=0.5;exitDx=0;exitDy=0;entryX=0;entryY=0.5;entryDx=0;entryDy=0;" edge="1" parent="1" source="Q0XkWP68WrlB3HJ1z4Vm-87" target="Q0XkWP68WrlB3HJ1z4Vm-60">
          <mxGeometry relative="1" as="geometry">
            <Array as="points">
              <mxPoint x="8" y="921" />
              <mxPoint x="8" y="390" />
            </Array>
          </mxGeometry>
        </mxCell>
        <mxCell id="Q0XkWP68WrlB3HJ1z4Vm-87" value="Available for Next Task Assignment" style="rounded=1;whiteSpace=wrap;html=1;flipH=1;align=left;" parent="1" vertex="1">
          <mxGeometry x="15.94" y="896" width="90.75" height="50" as="geometry" />
        </mxCell>
        <mxCell id="Q0XkWP68WrlB3HJ1z4Vm-90" style="edgeStyle=orthogonalEdgeStyle;rounded=0;orthogonalLoop=1;jettySize=auto;html=1;exitX=0.5;exitY=1;exitDx=0;exitDy=0;entryX=0.5;entryY=0;entryDx=0;entryDy=0;" parent="1" source="Q0XkWP68WrlB3HJ1z4Vm-88" target="Q0XkWP68WrlB3HJ1z4Vm-80" edge="1">
          <mxGeometry relative="1" as="geometry" />
        </mxCell>
        <mxCell id="Q0XkWP68WrlB3HJ1z4Vm-88" value="Picking Order reflects in PDA" style="rounded=1;whiteSpace=wrap;html=1;flipH=1;align=left;" parent="1" vertex="1">
          <mxGeometry x="16.689999999999998" y="590" width="96.12" height="44" as="geometry" />
        </mxCell>
        <mxCell id="Q0XkWP68WrlB3HJ1z4Vm-94" value="No" style="text;html=1;align=center;verticalAlign=middle;whiteSpace=wrap;rounded=0;" parent="1" vertex="1">
          <mxGeometry x="95.75" y="380" width="28.5" height="10" as="geometry" />
        </mxCell>
        <mxCell id="Q0XkWP68WrlB3HJ1z4Vm-95" value="Availability" style="rhombus;whiteSpace=wrap;html=1;" parent="1" vertex="1">
          <mxGeometry x="127.31" y="360" width="78.5" height="60" as="geometry" />
        </mxCell>
        <mxCell id="Q0XkWP68WrlB3HJ1z4Vm-106" style="edgeStyle=orthogonalEdgeStyle;rounded=0;orthogonalLoop=1;jettySize=auto;html=1;exitX=0.5;exitY=1;exitDx=0;exitDy=0;entryX=0.5;entryY=0;entryDx=0;entryDy=0;" parent="1" source="Q0XkWP68WrlB3HJ1z4Vm-96" target="Q0XkWP68WrlB3HJ1z4Vm-98" edge="1">
          <mxGeometry relative="1" as="geometry" />
        </mxCell>
        <mxCell id="Q0XkWP68WrlB3HJ1z4Vm-118" style="edgeStyle=orthogonalEdgeStyle;rounded=0;orthogonalLoop=1;jettySize=auto;html=1;exitX=1;exitY=0.5;exitDx=0;exitDy=0;entryX=0;entryY=0.5;entryDx=0;entryDy=0;fillColor=#f8cecc;strokeColor=#b85450;" parent="1" target="Q0XkWP68WrlB3HJ1z4Vm-42" edge="1">
          <mxGeometry relative="1" as="geometry">
            <mxPoint x="201.31000000000017" y="471" as="sourcePoint" />
            <Array as="points">
              <mxPoint x="210" y="471" />
            </Array>
          </mxGeometry>
        </mxCell>
        <mxCell id="Q0XkWP68WrlB3HJ1z4Vm-96" value="User Accept" style="rhombus;whiteSpace=wrap;html=1;" parent="1" vertex="1">
          <mxGeometry x="127.31" y="436" width="80" height="70" as="geometry" />
        </mxCell>
        <mxCell id="Q0XkWP68WrlB3HJ1z4Vm-103" style="edgeStyle=orthogonalEdgeStyle;rounded=0;orthogonalLoop=1;jettySize=auto;html=1;exitX=0.5;exitY=1;exitDx=0;exitDy=0;entryX=0.5;entryY=0;entryDx=0;entryDy=0;" parent="1" source="Q0XkWP68WrlB3HJ1z4Vm-98" edge="1">
          <mxGeometry relative="1" as="geometry">
            <mxPoint x="167.06000000000017" y="590" as="targetPoint" />
          </mxGeometry>
        </mxCell>
        <mxCell id="Q0XkWP68WrlB3HJ1z4Vm-98" value="Assign Task" style="rounded=1;whiteSpace=wrap;html=1;flipH=1;" parent="1" vertex="1">
          <mxGeometry x="137.31" y="527" width="60" height="30" as="geometry" />
        </mxCell>
        <mxCell id="Q0XkWP68WrlB3HJ1z4Vm-102" style="edgeStyle=orthogonalEdgeStyle;rounded=0;orthogonalLoop=1;jettySize=auto;html=1;exitX=0;exitY=0;exitDx=0;exitDy=0;entryX=0.5;entryY=0;entryDx=0;entryDy=0;" parent="1" source="Q0XkWP68WrlB3HJ1z4Vm-99" target="Q0XkWP68WrlB3HJ1z4Vm-96" edge="1">
          <mxGeometry relative="1" as="geometry" />
        </mxCell>
        <mxCell id="Q0XkWP68WrlB3HJ1z4Vm-99" value="Yes" style="text;html=1;align=center;verticalAlign=middle;whiteSpace=wrap;rounded=0;" parent="1" vertex="1">
          <mxGeometry x="168.81" y="420" width="28.5" height="10" as="geometry" />
        </mxCell>
        <mxCell id="Q0XkWP68WrlB3HJ1z4Vm-117" style="edgeStyle=orthogonalEdgeStyle;rounded=0;orthogonalLoop=1;jettySize=auto;html=1;exitX=0.5;exitY=1;exitDx=0;exitDy=0;entryX=0.5;entryY=0;entryDx=0;entryDy=0;" parent="1" edge="1">
          <mxGeometry relative="1" as="geometry">
            <mxPoint x="167.06000000000017" y="634" as="sourcePoint" />
            <mxPoint x="167.31999999999994" y="652" as="targetPoint" />
          </mxGeometry>
        </mxCell>
        <mxCell id="Q0XkWP68WrlB3HJ1z4Vm-100" value="Picking Order reflects in PDA" style="rounded=1;whiteSpace=wrap;html=1;flipH=1;align=left;" parent="1" vertex="1">
          <mxGeometry x="120.01" y="590" width="96.12" height="44" as="geometry" />
        </mxCell>
        <mxCell id="Q0XkWP68WrlB3HJ1z4Vm-107" value="Yes" style="text;html=1;align=center;verticalAlign=middle;whiteSpace=wrap;rounded=0;" parent="1" vertex="1">
          <mxGeometry x="170.5" y="506" width="28.5" height="10" as="geometry" />
        </mxCell>
        <mxCell id="Q0XkWP68WrlB3HJ1z4Vm-108" style="edgeStyle=orthogonalEdgeStyle;rounded=0;orthogonalLoop=1;jettySize=auto;html=1;exitX=0.5;exitY=1;exitDx=0;exitDy=0;entryX=0.5;entryY=0;entryDx=0;entryDy=0;" parent="1" target="Q0XkWP68WrlB3HJ1z4Vm-111" edge="1">
          <mxGeometry relative="1" as="geometry">
            <mxPoint x="167.31999999999994" y="696" as="sourcePoint" />
          </mxGeometry>
        </mxCell>
        <mxCell id="Q0XkWP68WrlB3HJ1z4Vm-109" value="Scan the Cart# to SPS Order in PDA" style="rounded=1;whiteSpace=wrap;html=1;flipH=1;align=left;" parent="1" vertex="1">
          <mxGeometry x="118.49999999999999" y="652" width="96.12" height="44" as="geometry" />
        </mxCell>
        <mxCell id="Q0XkWP68WrlB3HJ1z4Vm-110" style="edgeStyle=orthogonalEdgeStyle;rounded=0;orthogonalLoop=1;jettySize=auto;html=1;exitX=0.5;exitY=1;exitDx=0;exitDy=0;entryX=0.5;entryY=0;entryDx=0;entryDy=0;" parent="1" source="Q0XkWP68WrlB3HJ1z4Vm-111" target="Q0XkWP68WrlB3HJ1z4Vm-113" edge="1">
          <mxGeometry relative="1" as="geometry" />
        </mxCell>
        <mxCell id="Q0XkWP68WrlB3HJ1z4Vm-111" value="Follow Picking Guideline" style="rounded=1;whiteSpace=wrap;html=1;flipH=1;align=left;" parent="1" vertex="1">
          <mxGeometry x="119.25" y="718" width="90.75" height="30" as="geometry" />
        </mxCell>
        <mxCell id="Q0XkWP68WrlB3HJ1z4Vm-112" style="edgeStyle=orthogonalEdgeStyle;rounded=0;orthogonalLoop=1;jettySize=auto;html=1;exitX=0.5;exitY=1;exitDx=0;exitDy=0;entryX=0.5;entryY=0;entryDx=0;entryDy=0;" parent="1" source="Q0XkWP68WrlB3HJ1z4Vm-113" target="Q0XkWP68WrlB3HJ1z4Vm-115" edge="1">
          <mxGeometry relative="1" as="geometry" />
        </mxCell>
        <mxCell id="Q0XkWP68WrlB3HJ1z4Vm-113" value="Confirm the Task in PDA" style="rounded=1;whiteSpace=wrap;html=1;flipH=1;align=left;" parent="1" vertex="1">
          <mxGeometry x="120" y="778" width="90.75" height="30" as="geometry" />
        </mxCell>
        <mxCell id="Q0XkWP68WrlB3HJ1z4Vm-114" style="edgeStyle=orthogonalEdgeStyle;rounded=0;orthogonalLoop=1;jettySize=auto;html=1;exitX=0.5;exitY=1;exitDx=0;exitDy=0;entryX=0.5;entryY=0;entryDx=0;entryDy=0;" parent="1" source="Q0XkWP68WrlB3HJ1z4Vm-115" target="Q0XkWP68WrlB3HJ1z4Vm-116" edge="1">
          <mxGeometry relative="1" as="geometry" />
        </mxCell>
        <mxCell id="Q0XkWP68WrlB3HJ1z4Vm-115" value="Move the Cart to AMR Pick-up Point" style="rounded=1;whiteSpace=wrap;html=1;flipH=1;align=left;" parent="1" vertex="1">
          <mxGeometry x="120.00999999999999" y="827" width="90.75" height="50" as="geometry" />
        </mxCell>
        <mxCell id="Q0XkWP68WrlB3HJ1z4Vm-116" value="Available for Next Task Assignment" style="rounded=1;whiteSpace=wrap;html=1;flipH=1;align=left;" parent="1" vertex="1">
          <mxGeometry x="119.25999999999999" y="896" width="90.75" height="50" as="geometry" />
        </mxCell>
        <mxCell id="Q0XkWP68WrlB3HJ1z4Vm-119" value="No" style="text;html=1;align=center;verticalAlign=middle;whiteSpace=wrap;rounded=0;" parent="1" vertex="1">
          <mxGeometry x="182.26" y="440" width="28.5" height="10" as="geometry" />
        </mxCell>
        <mxCell id="Q0XkWP68WrlB3HJ1z4Vm-120" value="Availability" style="rhombus;whiteSpace=wrap;html=1;" parent="1" vertex="1">
          <mxGeometry x="229.81" y="360" width="78.5" height="60" as="geometry" />
        </mxCell>
        <mxCell id="Q0XkWP68WrlB3HJ1z4Vm-121" style="edgeStyle=orthogonalEdgeStyle;rounded=0;orthogonalLoop=1;jettySize=auto;html=1;exitX=0.5;exitY=1;exitDx=0;exitDy=0;entryX=0.5;entryY=0;entryDx=0;entryDy=0;" parent="1" source="Q0XkWP68WrlB3HJ1z4Vm-122" target="Q0XkWP68WrlB3HJ1z4Vm-124" edge="1">
          <mxGeometry relative="1" as="geometry" />
        </mxCell>
        <mxCell id="Q0XkWP68WrlB3HJ1z4Vm-122" value="User Accept" style="rhombus;whiteSpace=wrap;html=1;" parent="1" vertex="1">
          <mxGeometry x="233.81" y="436" width="80" height="70" as="geometry" />
        </mxCell>
        <mxCell id="Q0XkWP68WrlB3HJ1z4Vm-123" style="edgeStyle=orthogonalEdgeStyle;rounded=0;orthogonalLoop=1;jettySize=auto;html=1;exitX=0.5;exitY=1;exitDx=0;exitDy=0;entryX=0.5;entryY=0;entryDx=0;entryDy=0;" parent="1" source="Q0XkWP68WrlB3HJ1z4Vm-124" target="Q0XkWP68WrlB3HJ1z4Vm-128" edge="1">
          <mxGeometry relative="1" as="geometry" />
        </mxCell>
        <mxCell id="Q0XkWP68WrlB3HJ1z4Vm-124" value="Assign Task" style="rounded=1;whiteSpace=wrap;html=1;flipH=1;" parent="1" vertex="1">
          <mxGeometry x="243.81" y="527" width="60" height="30" as="geometry" />
        </mxCell>
        <mxCell id="Q0XkWP68WrlB3HJ1z4Vm-125" style="edgeStyle=orthogonalEdgeStyle;rounded=0;orthogonalLoop=1;jettySize=auto;html=1;exitX=0;exitY=0;exitDx=0;exitDy=0;entryX=0.5;entryY=0;entryDx=0;entryDy=0;" parent="1" source="Q0XkWP68WrlB3HJ1z4Vm-126" target="Q0XkWP68WrlB3HJ1z4Vm-122" edge="1">
          <mxGeometry relative="1" as="geometry" />
        </mxCell>
        <mxCell id="Q0XkWP68WrlB3HJ1z4Vm-126" value="Yes" style="text;html=1;align=center;verticalAlign=middle;whiteSpace=wrap;rounded=0;" parent="1" vertex="1">
          <mxGeometry x="275.31" y="420" width="28.5" height="10" as="geometry" />
        </mxCell>
        <mxCell id="Q0XkWP68WrlB3HJ1z4Vm-127" style="edgeStyle=orthogonalEdgeStyle;rounded=0;orthogonalLoop=1;jettySize=auto;html=1;exitX=0.5;exitY=1;exitDx=0;exitDy=0;entryX=0.5;entryY=0;entryDx=0;entryDy=0;" parent="1" source="Q0XkWP68WrlB3HJ1z4Vm-128" target="Q0XkWP68WrlB3HJ1z4Vm-131" edge="1">
          <mxGeometry relative="1" as="geometry" />
        </mxCell>
        <mxCell id="Q0XkWP68WrlB3HJ1z4Vm-128" value="Picking Order reflects in PDA" style="rounded=1;whiteSpace=wrap;html=1;flipH=1;align=left;" parent="1" vertex="1">
          <mxGeometry x="225.5" y="590" width="96.12" height="44" as="geometry" />
        </mxCell>
        <mxCell id="Q0XkWP68WrlB3HJ1z4Vm-129" value="Yes" style="text;html=1;align=center;verticalAlign=middle;whiteSpace=wrap;rounded=0;" parent="1" vertex="1">
          <mxGeometry x="277" y="506" width="28.5" height="10" as="geometry" />
        </mxCell>
        <mxCell id="Q0XkWP68WrlB3HJ1z4Vm-130" style="edgeStyle=orthogonalEdgeStyle;rounded=0;orthogonalLoop=1;jettySize=auto;html=1;exitX=0.5;exitY=1;exitDx=0;exitDy=0;entryX=0.5;entryY=0;entryDx=0;entryDy=0;" parent="1" source="Q0XkWP68WrlB3HJ1z4Vm-131" target="Q0XkWP68WrlB3HJ1z4Vm-133" edge="1">
          <mxGeometry relative="1" as="geometry" />
        </mxCell>
        <mxCell id="Q0XkWP68WrlB3HJ1z4Vm-131" value="Scan the Cart# to SPS Order in PDA" style="rounded=1;whiteSpace=wrap;html=1;flipH=1;align=left;" parent="1" vertex="1">
          <mxGeometry x="225.76" y="652" width="96.12" height="44" as="geometry" />
        </mxCell>
        <mxCell id="Q0XkWP68WrlB3HJ1z4Vm-132" style="edgeStyle=orthogonalEdgeStyle;rounded=0;orthogonalLoop=1;jettySize=auto;html=1;exitX=0.5;exitY=1;exitDx=0;exitDy=0;entryX=0.5;entryY=0;entryDx=0;entryDy=0;" parent="1" source="Q0XkWP68WrlB3HJ1z4Vm-133" edge="1">
          <mxGeometry relative="1" as="geometry">
            <mxPoint x="271.8749999999998" y="777.9999999999998" as="targetPoint" />
          </mxGeometry>
        </mxCell>
        <mxCell id="Q0XkWP68WrlB3HJ1z4Vm-133" value="Follow Picking Guideline" style="rounded=1;whiteSpace=wrap;html=1;flipH=1;align=left;" parent="1" vertex="1">
          <mxGeometry x="225.75" y="718" width="90.75" height="30" as="geometry" />
        </mxCell>
        <mxCell id="Q0XkWP68WrlB3HJ1z4Vm-139" value="No" style="text;html=1;align=center;verticalAlign=middle;whiteSpace=wrap;rounded=0;" parent="1" vertex="1">
          <mxGeometry x="288.76" y="440" width="28.5" height="10" as="geometry" />
        </mxCell>
        <mxCell id="Q0XkWP68WrlB3HJ1z4Vm-146" style="edgeStyle=orthogonalEdgeStyle;rounded=0;orthogonalLoop=1;jettySize=auto;html=1;exitX=1;exitY=0.5;exitDx=0;exitDy=0;entryX=0;entryY=0.25;entryDx=0;entryDy=0;fillColor=#f8cecc;strokeColor=#b85450;" parent="1" source="Q0XkWP68WrlB3HJ1z4Vm-145" edge="1">
          <mxGeometry relative="1" as="geometry">
            <mxPoint x="337.75" y="325" as="targetPoint" />
            <Array as="points">
              <mxPoint x="328" y="818" />
              <mxPoint x="328" y="325" />
            </Array>
          </mxGeometry>
        </mxCell>
        <mxCell id="Q0XkWP68WrlB3HJ1z4Vm-148" style="edgeStyle=orthogonalEdgeStyle;rounded=0;orthogonalLoop=1;jettySize=auto;html=1;exitX=0.5;exitY=1;exitDx=0;exitDy=0;entryX=0.5;entryY=0;entryDx=0;entryDy=0;" parent="1" source="Q0XkWP68WrlB3HJ1z4Vm-145" edge="1" target="Q0XkWP68WrlB3HJ1z4Vm-154">
          <mxGeometry relative="1" as="geometry">
            <mxPoint x="271.1350000000002" y="877" as="targetPoint" />
          </mxGeometry>
        </mxCell>
        <mxCell id="Q0XkWP68WrlB3HJ1z4Vm-145" value="Parts Shortage" style="rhombus;whiteSpace=wrap;html=1;" parent="1" vertex="1">
          <mxGeometry x="231.12" y="778" width="80" height="80" as="geometry" />
        </mxCell>
        <mxCell id="Q0XkWP68WrlB3HJ1z4Vm-150" value="Yes" style="text;html=1;align=center;verticalAlign=middle;whiteSpace=wrap;rounded=0;" parent="1" vertex="1">
          <mxGeometry x="303.81" y="798" width="28.5" height="10" as="geometry" />
        </mxCell>
        <mxCell id="Q0XkWP68WrlB3HJ1z4Vm-151" style="edgeStyle=orthogonalEdgeStyle;rounded=0;orthogonalLoop=1;jettySize=auto;html=1;exitX=0.5;exitY=1;exitDx=0;exitDy=0;entryX=0.5;entryY=0;entryDx=0;entryDy=0;" parent="1" source="Q0XkWP68WrlB3HJ1z4Vm-152" edge="1">
          <mxGeometry relative="1" as="geometry">
            <mxPoint x="267.625" y="989" as="targetPoint" />
          </mxGeometry>
        </mxCell>
        <mxCell id="Q0XkWP68WrlB3HJ1z4Vm-152" value="Move the Cart to AMR Pick-up Point" style="rounded=1;whiteSpace=wrap;html=1;flipH=1;align=left;" parent="1" vertex="1">
          <mxGeometry x="222.51" y="920" width="90.75" height="50" as="geometry" />
        </mxCell>
        <mxCell id="Q0XkWP68WrlB3HJ1z4Vm-153" value="Available for Next Task Assignment" style="rounded=1;whiteSpace=wrap;html=1;flipH=1;align=left;" parent="1" vertex="1">
          <mxGeometry x="222.51" y="989" width="90.75" height="50" as="geometry" />
        </mxCell>
        <mxCell id="Q0XkWP68WrlB3HJ1z4Vm-155" style="edgeStyle=orthogonalEdgeStyle;rounded=0;orthogonalLoop=1;jettySize=auto;html=1;exitX=0.5;exitY=1;exitDx=0;exitDy=0;entryX=0.5;entryY=0;entryDx=0;entryDy=0;" parent="1" source="Q0XkWP68WrlB3HJ1z4Vm-154" target="Q0XkWP68WrlB3HJ1z4Vm-152" edge="1">
          <mxGeometry relative="1" as="geometry" />
        </mxCell>
        <mxCell id="Q0XkWP68WrlB3HJ1z4Vm-154" value="Turn Off PTL&lt;br&gt;Escalation &lt;font style=&quot;color: rgb(255, 51, 51);&quot;&gt;**&lt;/font&gt;" style="rounded=1;whiteSpace=wrap;html=1;flipH=1;align=left;" parent="1" vertex="1">
          <mxGeometry x="225.81" y="875" width="90.75" height="30" as="geometry" />
        </mxCell>
        <mxCell id="v4bEyIWDKxA1EAHSsEIr-1" value="Availability" style="rhombus;whiteSpace=wrap;html=1;" vertex="1" parent="1">
          <mxGeometry x="511.93" y="360" width="78.5" height="60" as="geometry" />
        </mxCell>
        <mxCell id="v4bEyIWDKxA1EAHSsEIr-4" style="edgeStyle=orthogonalEdgeStyle;rounded=0;orthogonalLoop=1;jettySize=auto;html=1;exitX=0.5;exitY=1;exitDx=0;exitDy=0;entryX=0.5;entryY=0;entryDx=0;entryDy=0;" edge="1" parent="1">
          <mxGeometry relative="1" as="geometry">
            <mxPoint x="552" y="470" as="sourcePoint" />
            <mxPoint x="552" y="502" as="targetPoint" />
          </mxGeometry>
        </mxCell>
        <mxCell id="v4bEyIWDKxA1EAHSsEIr-5" value="Assign Task" style="rounded=1;whiteSpace=wrap;html=1;flipH=1;" vertex="1" parent="1">
          <mxGeometry x="507" y="441" width="90" height="30" as="geometry" />
        </mxCell>
        <mxCell id="v4bEyIWDKxA1EAHSsEIr-6" style="edgeStyle=orthogonalEdgeStyle;rounded=0;orthogonalLoop=1;jettySize=auto;html=1;entryX=0.5;entryY=0;entryDx=0;entryDy=0;" edge="1" parent="1">
          <mxGeometry relative="1" as="geometry">
            <mxPoint x="551" y="420" as="sourcePoint" />
            <mxPoint x="551.3" y="440" as="targetPoint" />
          </mxGeometry>
        </mxCell>
        <mxCell id="v4bEyIWDKxA1EAHSsEIr-7" value="Yes" style="text;html=1;align=center;verticalAlign=middle;whiteSpace=wrap;rounded=0;" vertex="1" parent="1">
          <mxGeometry x="557.4300000000001" y="420" width="28.5" height="10" as="geometry" />
        </mxCell>
        <mxCell id="v4bEyIWDKxA1EAHSsEIr-8" style="edgeStyle=orthogonalEdgeStyle;rounded=0;orthogonalLoop=1;jettySize=auto;html=1;exitX=0.5;exitY=1;exitDx=0;exitDy=0;entryX=0.5;entryY=0;entryDx=0;entryDy=0;" edge="1" parent="1">
          <mxGeometry relative="1" as="geometry">
            <mxPoint x="552" y="546" as="sourcePoint" />
            <mxPoint x="551.3000000000002" y="570" as="targetPoint" />
          </mxGeometry>
        </mxCell>
        <mxCell id="v4bEyIWDKxA1EAHSsEIr-9" value="Picking Order reflects in PDA" style="rounded=1;whiteSpace=wrap;html=1;flipH=1;align=left;" vertex="1" parent="1">
          <mxGeometry x="503.94" y="503" width="96.12" height="44" as="geometry" />
        </mxCell>
        <mxCell id="v4bEyIWDKxA1EAHSsEIr-79" style="edgeStyle=orthogonalEdgeStyle;rounded=0;orthogonalLoop=1;jettySize=auto;html=1;exitX=0.5;exitY=1;exitDx=0;exitDy=0;entryX=0.5;entryY=0;entryDx=0;entryDy=0;" edge="1" parent="1" source="v4bEyIWDKxA1EAHSsEIr-12" target="v4bEyIWDKxA1EAHSsEIr-39">
          <mxGeometry relative="1" as="geometry" />
        </mxCell>
        <mxCell id="v4bEyIWDKxA1EAHSsEIr-12" value="Scan the Cart# to SPS Order in PDA" style="rounded=1;whiteSpace=wrap;html=1;flipH=1;align=left;" vertex="1" parent="1">
          <mxGeometry x="503.24" y="571" width="96.12" height="44" as="geometry" />
        </mxCell>
        <mxCell id="v4bEyIWDKxA1EAHSsEIr-15" style="edgeStyle=orthogonalEdgeStyle;rounded=0;orthogonalLoop=1;jettySize=auto;html=1;exitX=0.5;exitY=1;exitDx=0;exitDy=0;entryX=0.5;entryY=0;entryDx=0;entryDy=0;" edge="1" parent="1" source="v4bEyIWDKxA1EAHSsEIr-16" target="v4bEyIWDKxA1EAHSsEIr-18">
          <mxGeometry relative="1" as="geometry" />
        </mxCell>
        <mxCell id="v4bEyIWDKxA1EAHSsEIr-16" value="User Accept" style="rhombus;whiteSpace=wrap;html=1;" vertex="1" parent="1">
          <mxGeometry x="339.00000000000006" y="360" width="80" height="70" as="geometry" />
        </mxCell>
        <mxCell id="v4bEyIWDKxA1EAHSsEIr-17" style="edgeStyle=orthogonalEdgeStyle;rounded=0;orthogonalLoop=1;jettySize=auto;html=1;exitX=0.5;exitY=1;exitDx=0;exitDy=0;entryX=0.5;entryY=0;entryDx=0;entryDy=0;" edge="1" parent="1" source="v4bEyIWDKxA1EAHSsEIr-18" target="v4bEyIWDKxA1EAHSsEIr-22">
          <mxGeometry relative="1" as="geometry" />
        </mxCell>
        <mxCell id="v4bEyIWDKxA1EAHSsEIr-18" value="Assign Task" style="rounded=1;whiteSpace=wrap;html=1;flipH=1;" vertex="1" parent="1">
          <mxGeometry x="349.00000000000006" y="460" width="60" height="30" as="geometry" />
        </mxCell>
        <mxCell id="v4bEyIWDKxA1EAHSsEIr-19" style="edgeStyle=orthogonalEdgeStyle;rounded=0;orthogonalLoop=1;jettySize=auto;html=1;entryX=0.5;entryY=0;entryDx=0;entryDy=0;exitX=0.5;exitY=1;exitDx=0;exitDy=0;" edge="1" parent="1" target="v4bEyIWDKxA1EAHSsEIr-16" source="Q0XkWP68WrlB3HJ1z4Vm-43">
          <mxGeometry relative="1" as="geometry">
            <mxPoint x="381.32" y="360" as="sourcePoint" />
          </mxGeometry>
        </mxCell>
        <mxCell id="v4bEyIWDKxA1EAHSsEIr-21" style="edgeStyle=orthogonalEdgeStyle;rounded=0;orthogonalLoop=1;jettySize=auto;html=1;exitX=0.5;exitY=1;exitDx=0;exitDy=0;entryX=0.5;entryY=0;entryDx=0;entryDy=0;" edge="1" parent="1" source="v4bEyIWDKxA1EAHSsEIr-22" target="v4bEyIWDKxA1EAHSsEIr-25">
          <mxGeometry relative="1" as="geometry" />
        </mxCell>
        <mxCell id="v4bEyIWDKxA1EAHSsEIr-22" value="Picking Order reflects in PDA" style="rounded=1;whiteSpace=wrap;html=1;flipH=1;align=left;" vertex="1" parent="1">
          <mxGeometry x="333.57" y="510" width="96.12" height="44" as="geometry" />
        </mxCell>
        <mxCell id="v4bEyIWDKxA1EAHSsEIr-23" value="Yes" style="text;html=1;align=center;verticalAlign=middle;whiteSpace=wrap;rounded=0;" vertex="1" parent="1">
          <mxGeometry x="372.5" y="436" width="28.5" height="10" as="geometry" />
        </mxCell>
        <mxCell id="v4bEyIWDKxA1EAHSsEIr-34" style="edgeStyle=orthogonalEdgeStyle;rounded=0;orthogonalLoop=1;jettySize=auto;html=1;exitX=0.5;exitY=1;exitDx=0;exitDy=0;entryX=0.5;entryY=0;entryDx=0;entryDy=0;" edge="1" parent="1" source="v4bEyIWDKxA1EAHSsEIr-25" target="v4bEyIWDKxA1EAHSsEIr-30">
          <mxGeometry relative="1" as="geometry" />
        </mxCell>
        <mxCell id="v4bEyIWDKxA1EAHSsEIr-25" value="Accept the Order" style="rounded=1;whiteSpace=wrap;html=1;flipH=1;align=left;" vertex="1" parent="1">
          <mxGeometry x="333.44" y="580" width="96.12" height="30" as="geometry" />
        </mxCell>
        <mxCell id="v4bEyIWDKxA1EAHSsEIr-35" style="edgeStyle=orthogonalEdgeStyle;rounded=0;orthogonalLoop=1;jettySize=auto;html=1;exitX=0.5;exitY=1;exitDx=0;exitDy=0;entryX=0.5;entryY=0;entryDx=0;entryDy=0;" edge="1" parent="1" source="v4bEyIWDKxA1EAHSsEIr-30" target="v4bEyIWDKxA1EAHSsEIr-31">
          <mxGeometry relative="1" as="geometry" />
        </mxCell>
        <mxCell id="v4bEyIWDKxA1EAHSsEIr-30" value="Picks the Part from Primary WH" style="rounded=1;whiteSpace=wrap;html=1;flipH=1;align=left;" vertex="1" parent="1">
          <mxGeometry x="333.57" y="626" width="96.12" height="30" as="geometry" />
        </mxCell>
        <mxCell id="v4bEyIWDKxA1EAHSsEIr-36" style="edgeStyle=orthogonalEdgeStyle;rounded=0;orthogonalLoop=1;jettySize=auto;html=1;exitX=0.5;exitY=1;exitDx=0;exitDy=0;entryX=0.5;entryY=0;entryDx=0;entryDy=0;" edge="1" parent="1" source="v4bEyIWDKxA1EAHSsEIr-31" target="v4bEyIWDKxA1EAHSsEIr-32">
          <mxGeometry relative="1" as="geometry" />
        </mxCell>
        <mxCell id="v4bEyIWDKxA1EAHSsEIr-31" value="Locates the Cart Location" style="rounded=1;whiteSpace=wrap;html=1;flipH=1;align=left;" vertex="1" parent="1">
          <mxGeometry x="333.57" y="680" width="96.12" height="30" as="geometry" />
        </mxCell>
        <mxCell id="v4bEyIWDKxA1EAHSsEIr-37" style="edgeStyle=orthogonalEdgeStyle;rounded=0;orthogonalLoop=1;jettySize=auto;html=1;exitX=0.5;exitY=1;exitDx=0;exitDy=0;entryX=0.5;entryY=0;entryDx=0;entryDy=0;" edge="1" parent="1" source="v4bEyIWDKxA1EAHSsEIr-32" target="v4bEyIWDKxA1EAHSsEIr-33">
          <mxGeometry relative="1" as="geometry" />
        </mxCell>
        <mxCell id="v4bEyIWDKxA1EAHSsEIr-32" value="Replenish &amp;amp; Confirm in PDA" style="rounded=1;whiteSpace=wrap;html=1;flipH=1;align=left;" vertex="1" parent="1">
          <mxGeometry x="333.57" y="730" width="96.12" height="30" as="geometry" />
        </mxCell>
        <mxCell id="v4bEyIWDKxA1EAHSsEIr-33" value="Order is Closed" style="rounded=1;whiteSpace=wrap;html=1;flipH=1;align=left;" vertex="1" parent="1">
          <mxGeometry x="333.57" y="778" width="96.12" height="30" as="geometry" />
        </mxCell>
        <mxCell id="v4bEyIWDKxA1EAHSsEIr-45" style="edgeStyle=orthogonalEdgeStyle;rounded=0;orthogonalLoop=1;jettySize=auto;html=1;exitX=0.5;exitY=1;exitDx=0;exitDy=0;entryX=0.5;entryY=0;entryDx=0;entryDy=0;" edge="1" parent="1">
          <mxGeometry relative="1" as="geometry">
            <mxPoint x="553.2249999999997" y="665" as="sourcePoint" />
            <mxPoint x="550.865" y="691" as="targetPoint" />
          </mxGeometry>
        </mxCell>
        <mxCell id="v4bEyIWDKxA1EAHSsEIr-39" value="PTL reflects in Both Side" style="rounded=1;whiteSpace=wrap;html=1;flipH=1;align=left;" vertex="1" parent="1">
          <mxGeometry x="507.85" y="636" width="90.75" height="30" as="geometry" />
        </mxCell>
        <mxCell id="v4bEyIWDKxA1EAHSsEIr-80" style="edgeStyle=orthogonalEdgeStyle;rounded=0;orthogonalLoop=1;jettySize=auto;html=1;exitX=0.5;exitY=1;exitDx=0;exitDy=0;entryX=0.5;entryY=0;entryDx=0;entryDy=0;" edge="1" parent="1" source="v4bEyIWDKxA1EAHSsEIr-46" target="v4bEyIWDKxA1EAHSsEIr-47">
          <mxGeometry relative="1" as="geometry" />
        </mxCell>
        <mxCell id="v4bEyIWDKxA1EAHSsEIr-46" value="Order in&lt;br&gt;Pipeline" style="rhombus;whiteSpace=wrap;html=1;" vertex="1" parent="1">
          <mxGeometry x="614.69" y="845" width="92" height="80" as="geometry" />
        </mxCell>
        <mxCell id="v4bEyIWDKxA1EAHSsEIr-47" value="Scan the Cart# to link the SPS order" style="rounded=1;whiteSpace=wrap;html=1;flipH=1;align=left;" vertex="1" parent="1">
          <mxGeometry x="612.2000000000002" y="950" width="96.12" height="41" as="geometry" />
        </mxCell>
        <mxCell id="v4bEyIWDKxA1EAHSsEIr-75" style="edgeStyle=orthogonalEdgeStyle;rounded=0;orthogonalLoop=1;jettySize=auto;html=1;exitX=0.5;exitY=1;exitDx=0;exitDy=0;entryX=0.5;entryY=0;entryDx=0;entryDy=0;" edge="1" parent="1" source="v4bEyIWDKxA1EAHSsEIr-48" target="v4bEyIWDKxA1EAHSsEIr-46">
          <mxGeometry relative="1" as="geometry" />
        </mxCell>
        <mxCell id="v4bEyIWDKxA1EAHSsEIr-48" value="One Picker finished early" style="rhombus;whiteSpace=wrap;html=1;" vertex="1" parent="1">
          <mxGeometry x="614.69" y="743" width="92" height="84" as="geometry" />
        </mxCell>
        <mxCell id="v4bEyIWDKxA1EAHSsEIr-52" style="edgeStyle=orthogonalEdgeStyle;rounded=0;orthogonalLoop=1;jettySize=auto;html=1;exitX=0.5;exitY=1;exitDx=0;exitDy=0;entryX=0.5;entryY=0;entryDx=0;entryDy=0;" edge="1" parent="1">
          <mxGeometry relative="1" as="geometry">
            <mxPoint x="550.865" y="721" as="sourcePoint" />
            <mxPoint x="551.625" y="748" as="targetPoint" />
          </mxGeometry>
        </mxCell>
        <mxCell id="v4bEyIWDKxA1EAHSsEIr-49" value="Follow Picking Guideline" style="rounded=1;whiteSpace=wrap;html=1;flipH=1;align=left;" vertex="1" parent="1">
          <mxGeometry x="505.49" y="692" width="90.75" height="30" as="geometry" />
        </mxCell>
        <mxCell id="v4bEyIWDKxA1EAHSsEIr-53" style="edgeStyle=orthogonalEdgeStyle;rounded=0;orthogonalLoop=1;jettySize=auto;html=1;exitX=0.5;exitY=1;exitDx=0;exitDy=0;entryX=0.5;entryY=0;entryDx=0;entryDy=0;" edge="1" parent="1" target="v4bEyIWDKxA1EAHSsEIr-51">
          <mxGeometry relative="1" as="geometry">
            <mxPoint x="551.625" y="820" as="sourcePoint" />
          </mxGeometry>
        </mxCell>
        <mxCell id="v4bEyIWDKxA1EAHSsEIr-82" style="edgeStyle=orthogonalEdgeStyle;rounded=0;orthogonalLoop=1;jettySize=auto;html=1;exitX=1;exitY=0.5;exitDx=0;exitDy=0;entryX=0;entryY=0.5;entryDx=0;entryDy=0;" edge="1" parent="1" source="v4bEyIWDKxA1EAHSsEIr-50" target="v4bEyIWDKxA1EAHSsEIr-47">
          <mxGeometry relative="1" as="geometry">
            <Array as="points">
              <mxPoint x="600" y="785" />
              <mxPoint x="600" y="971" />
            </Array>
          </mxGeometry>
        </mxCell>
        <mxCell id="v4bEyIWDKxA1EAHSsEIr-50" value="Complete &amp;amp; Confirm the Task to Unlink Order from Cluster" style="rounded=1;whiteSpace=wrap;html=1;flipH=1;align=left;" vertex="1" parent="1">
          <mxGeometry x="506.25" y="749" width="90.75" height="72" as="geometry" />
        </mxCell>
        <mxCell id="v4bEyIWDKxA1EAHSsEIr-56" style="edgeStyle=orthogonalEdgeStyle;rounded=0;orthogonalLoop=1;jettySize=auto;html=1;exitX=0;exitY=0.5;exitDx=0;exitDy=0;entryX=0;entryY=0.5;entryDx=0;entryDy=0;" edge="1" parent="1" source="v4bEyIWDKxA1EAHSsEIr-51" target="v4bEyIWDKxA1EAHSsEIr-1">
          <mxGeometry relative="1" as="geometry" />
        </mxCell>
        <mxCell id="v4bEyIWDKxA1EAHSsEIr-51" value="Available for Next Task Assignment" style="rounded=1;whiteSpace=wrap;html=1;flipH=1;align=left;" vertex="1" parent="1">
          <mxGeometry x="503.94" y="843" width="90.75" height="50" as="geometry" />
        </mxCell>
        <mxCell id="v4bEyIWDKxA1EAHSsEIr-57" style="edgeStyle=orthogonalEdgeStyle;rounded=0;orthogonalLoop=1;jettySize=auto;html=1;exitX=0.5;exitY=1;exitDx=0;exitDy=0;entryX=0.5;entryY=0;entryDx=0;entryDy=0;" edge="1" parent="1" target="v4bEyIWDKxA1EAHSsEIr-60">
          <mxGeometry relative="1" as="geometry">
            <mxPoint x="663.5" y="421" as="sourcePoint" />
          </mxGeometry>
        </mxCell>
        <mxCell id="v4bEyIWDKxA1EAHSsEIr-59" style="edgeStyle=orthogonalEdgeStyle;rounded=0;orthogonalLoop=1;jettySize=auto;html=1;exitX=0.5;exitY=1;exitDx=0;exitDy=0;entryX=0.5;entryY=0;entryDx=0;entryDy=0;" edge="1" parent="1" source="v4bEyIWDKxA1EAHSsEIr-60">
          <mxGeometry relative="1" as="geometry">
            <mxPoint x="663.2500000000002" y="505" as="targetPoint" />
          </mxGeometry>
        </mxCell>
        <mxCell id="v4bEyIWDKxA1EAHSsEIr-60" value="Assign Task" style="rounded=1;whiteSpace=wrap;html=1;flipH=1;" vertex="1" parent="1">
          <mxGeometry x="620" y="442" width="90" height="30" as="geometry" />
        </mxCell>
        <mxCell id="v4bEyIWDKxA1EAHSsEIr-63" style="edgeStyle=orthogonalEdgeStyle;rounded=0;orthogonalLoop=1;jettySize=auto;html=1;exitX=0.5;exitY=1;exitDx=0;exitDy=0;entryX=0.5;entryY=0;entryDx=0;entryDy=0;" edge="1" parent="1">
          <mxGeometry relative="1" as="geometry">
            <mxPoint x="663.2500000000002" y="549" as="sourcePoint" />
            <mxPoint x="663.51" y="567" as="targetPoint" />
          </mxGeometry>
        </mxCell>
        <mxCell id="v4bEyIWDKxA1EAHSsEIr-64" value="Picking Order reflects in PDA" style="rounded=1;whiteSpace=wrap;html=1;flipH=1;align=left;" vertex="1" parent="1">
          <mxGeometry x="616.2" y="505" width="96.12" height="44" as="geometry" />
        </mxCell>
        <mxCell id="v4bEyIWDKxA1EAHSsEIr-72" style="edgeStyle=orthogonalEdgeStyle;rounded=0;orthogonalLoop=1;jettySize=auto;html=1;exitX=0.5;exitY=1;exitDx=0;exitDy=0;entryX=0.5;entryY=0;entryDx=0;entryDy=0;" edge="1" parent="1" source="v4bEyIWDKxA1EAHSsEIr-66" target="v4bEyIWDKxA1EAHSsEIr-70">
          <mxGeometry relative="1" as="geometry" />
        </mxCell>
        <mxCell id="v4bEyIWDKxA1EAHSsEIr-66" value="Scan the Cart# to SPS Order in PDA" style="rounded=1;whiteSpace=wrap;html=1;flipH=1;align=left;" vertex="1" parent="1">
          <mxGeometry x="614.69" y="567" width="96.12" height="44" as="geometry" />
        </mxCell>
        <mxCell id="v4bEyIWDKxA1EAHSsEIr-68" value="Availability" style="rhombus;whiteSpace=wrap;html=1;" vertex="1" parent="1">
          <mxGeometry x="625.0100000000001" y="360" width="78.5" height="60" as="geometry" />
        </mxCell>
        <mxCell id="v4bEyIWDKxA1EAHSsEIr-73" style="edgeStyle=orthogonalEdgeStyle;rounded=0;orthogonalLoop=1;jettySize=auto;html=1;exitX=0.5;exitY=1;exitDx=0;exitDy=0;entryX=0.5;entryY=0;entryDx=0;entryDy=0;" edge="1" parent="1" source="v4bEyIWDKxA1EAHSsEIr-70" target="v4bEyIWDKxA1EAHSsEIr-71">
          <mxGeometry relative="1" as="geometry" />
        </mxCell>
        <mxCell id="v4bEyIWDKxA1EAHSsEIr-70" value="PTL reflects in Both Side" style="rounded=1;whiteSpace=wrap;html=1;flipH=1;align=left;" vertex="1" parent="1">
          <mxGeometry x="619.3000000000001" y="637" width="90.75" height="30" as="geometry" />
        </mxCell>
        <mxCell id="v4bEyIWDKxA1EAHSsEIr-74" style="edgeStyle=orthogonalEdgeStyle;rounded=0;orthogonalLoop=1;jettySize=auto;html=1;exitX=0.5;exitY=1;exitDx=0;exitDy=0;entryX=0.5;entryY=0;entryDx=0;entryDy=0;" edge="1" parent="1" source="v4bEyIWDKxA1EAHSsEIr-71" target="v4bEyIWDKxA1EAHSsEIr-48">
          <mxGeometry relative="1" as="geometry" />
        </mxCell>
        <mxCell id="v4bEyIWDKxA1EAHSsEIr-71" value="Follow Picking Guideline" style="rounded=1;whiteSpace=wrap;html=1;flipH=1;align=left;" vertex="1" parent="1">
          <mxGeometry x="616.94" y="693" width="90.75" height="30" as="geometry" />
        </mxCell>
        <mxCell id="v4bEyIWDKxA1EAHSsEIr-83" value="Scan the Cart# to link the SPS order" style="rounded=1;whiteSpace=wrap;html=1;flipH=1;align=left;" vertex="1" parent="1">
          <mxGeometry x="610.0000000000001" y="1010" width="96.12" height="41" as="geometry" />
        </mxCell>
      </root>
    </mxGraphModel>
  </diagram>
</mxfile>
